{
	"asset":{
		"generator":"Khronos glTF Blender I/O v4.3.47",
		"version":"2.0"
	},
	"scene":0,
	"scenes":[
		{
			"name":"Scene",
			"nodes":[
				0
			]
		}
	],
	"nodes":[
		{
			"mesh":0,
			"name":"Cube"
		}
	],
	"materials":[
		{
			"doubleSided":true,
			"name":"Cube",
			"normalTexture":{
				"index":0
			},
			"pbrMetallicRoughness":{
				"baseColorTexture":{
					"index":1
				},
				"metallicFactor":0,
				"roughnessFactor":0.5
			}
		}
	],
	"meshes":[
		{
			"name":"Cube",
			"primitives":[
				{
					"attributes":{
						"POSITION":0,
						"NORMAL":1,
						"TEXCOORD_0":2
					},
					"indices":3,
					"material":0
				}
			]
		}
	],
	"textures":[
		{
			"sampler":0,
			"source":0
		},
		{
			"sampler":0,
			"source":1
		}
	],
	"images":[
		{
			"mimeType":"image/png",
			"name":"CubeNormals",
			"uri":"CubeNormals.png"
		},
		{
			"mimeType":"image/png",
			"name":"Cube texture",
			"uri":"Cube%20texture.png"
		}
	],
	"accessors":[
		{
			"bufferView":0,
			"componentType":5126,
			"count":74,
			"max":[
				0.9861128926277161,
				0.9918966889381409,
				0.9970653057098389
			],
			"min":[
				-0.9861128926277161,
				-0.9918966889381409,
				-0.9970653057098389
			],
			"type":"VEC3"
		},
		{
			"bufferView":1,
			"componentType":5126,
			"count":74,
			"type":"VEC3"
		},
		{
			"bufferView":2,
			"componentType":5126,
			"count":74,
			"type":"VEC2"
		},
		{
			"bufferView":3,
			"componentType":5123,
			"count":312,
			"type":"SCALAR"
		}
	],
	"bufferViews":[
		{
			"buffer":0,
			"byteLength":888,
			"byteOffset":0,
			"target":34962
		},
		{
			"buffer":0,
			"byteLength":888,
			"byteOffset":888,
			"target":34962
		},
		{
			"buffer":0,
			"byteLength":592,
			"byteOffset":1776,
			"target":34962
		},
		{
			"buffer":0,
			"byteLength":624,
			"byteOffset":2368,
			"target":34963
		}
	],
	"samplers":[
		{
			"magFilter":9729,
			"minFilter":9987
		}
	],
	"buffers":[
		{
			"byteLength":2992,
			"uri":"Cube.bin"
		}
	]
}
